HIERARCHY
ROOT MidHip
{
    OFFSET 0.0 0.0 0.0
    CHANNELS 6 Xposition Yposition Zposition Zrotation Xrotation Yrotation
    JOINT Spine
    {
        OFFSET 0.0 0.0 11.706303656495182
        CHANNELS 3 Zrotation Xrotation Yrotation
        JOINT MidShoulder
        {
            OFFSET 0.0 0.0 11.70630365649518
            CHANNELS 3 Zrotation Xrotation Yrotation
            JOINT Nose
            {
                OFFSET 0.0 0.0 8.518794256889038
                CHANNELS 3 Zrotation Xrotation Yrotation
                End Site
                {
                    OFFSET 0.0 0.0 3.4075177027556145
                }
            }
            JOINT RightShoulder
            {
                OFFSET -6.134747575327156 0.0 0.0
                CHANNELS 3 Zrotation Xrotation Yrotation
                JOINT RightElbow
                {
                    OFFSET -10.703894157897228 0.0 0.0
                    CHANNELS 3 Zrotation Xrotation Yrotation
                    JOINT RightWrist
                    {
                        OFFSET -8.300321992197645 0.0 0.0
                        CHANNELS 3 Zrotation Xrotation Yrotation
                        End Site
                        {
                            OFFSET -2.347685586685915 2.347685586685915 0.0
                        }
                        End Site
                        {
                            OFFSET -3.3201287968790583 0.0 0.0
                        }
                        End Site
                        {
                            OFFSET -2.347685586685915 -2.347685586685915 0.0
                        }
                    }
                }
            }
            JOINT LeftShoulder
            {
                OFFSET 6.134747575327156 0.0 0.0
                CHANNELS 3 Zrotation Xrotation Yrotation
                JOINT LeftElbow
                {
                    OFFSET 10.703894157897228 0.0 0.0
                    CHANNELS 3 Zrotation Xrotation Yrotation
                    JOINT LeftWrist
                    {
                        OFFSET 8.300321992197645 0.0 0.0
                        CHANNELS 3 Zrotation Xrotation Yrotation
                        End Site
                        {
                            OFFSET 2.347685586685915 2.347685586685915 0.0
                        }
                        End Site
                        {
                            OFFSET 3.3201287968790583 0.0 0.0
                        }
                        End Site
                        {
                            OFFSET 2.347685586685915 -2.347685586685915 0.0
                        }
                    }
                }
            }
        }
    }
    JOINT RightHip
    {
        OFFSET -3.739142547531417 0.0 0.0
        CHANNELS 3 Zrotation Xrotation Yrotation
        JOINT RightKnee
        {
            OFFSET 0.0 0.0 -15.313886418209384
            CHANNELS 3 Zrotation Xrotation Yrotation
            JOINT RightAnkle
            {
                OFFSET 0.0 0.0 -16.359880254172076
                CHANNELS 3 Zrotation Xrotation Yrotation
                End Site
                {
                    OFFSET 0.0 4.627272906849989 -4.627272906849989
                }
                End Site
                {
                    OFFSET 0.0 -4.627272906849989 -4.627272906849989
                }
            }
        }
    }
    JOINT LeftHip
    {
        OFFSET 3.739142547531417 0.0 0.0
        CHANNELS 3 Zrotation Xrotation Yrotation
        JOINT LeftKnee
        {
            OFFSET 0.0 0.0 -15.313886418209384
            CHANNELS 3 Zrotation Xrotation Yrotation
            JOINT LeftAnkle
            {
                OFFSET 0.0 0.0 -16.359880254172076
                CHANNELS 3 Zrotation Xrotation Yrotation
                End Site
                {
                    OFFSET 0.0 4.627272906849989 -4.627272906849989
                }
                End Site
                {
                    OFFSET 0.0 -4.627272906849989 -4.627272906849989
                }
            }
        }
    }
}
MOTION
Frames: 12
Frame Time: 0.03333333333333333
2.6753715563855267 37.637439663135595 -2.8061753984203666 71.49624572014216 -2.1618601126478962 99.61521836191332 -0.9713584339583909 -12.167299237398463 -4.045070896659848 11.136444486783274 -6.17224200243733e-16 -6.331093634890536e-15 3.1805546814635168e-15 0.0 0.0 49.126361025331924 -19.73196809290786 -64.46111959480184 126.99825144698168 2.8145017553102227e-15 -2.7028528073856688e-14 21.41963140983285 15.176406021075065 -5.863637192066427 -10.722269589704808 -27.696359513979825 65.43992150004672 -119.05285018548997 -1.7135265325321379e-15 -9.522048272627656e-16 -39.09476199435784 9.003842528811418 -172.75310960718522 -0.986437431820348 -12.350407326361056 4.963463755099866 2.8666477856970074 16.52880977493556 0.21396059395687625 -3.1805546814635168e-15 0.0 0.0 -2.159029665206593 -25.601161498484906 -12.893332305184156 -2.052719118741348 14.461515487965176 6.766300625838571 -1.7655625192200634e-31 -3.180554681463516e-15 -6.361109362927032e-15
2.8107181196668933 37.602027940804724 -2.8715288976864968 71.51067974049458 -2.6513311787099085 99.44366664130632 -0.9262104821919674 -12.600998067109776 -4.371221596115988 12.440596893179434 6.668277257324409e-15 2.4725935428912533e-15 0.0 0.0 0.0 56.18667141016536 -11.400347701751608 -66.32737871582889 137.44261086883407 1.416337405726169e-14 -1.3104949254676464e-15 19.245829909226327 6.035144646317859 -2.1022359926950163 -15.196416952057913 -28.017600788636113 64.63783362277344 -121.75606236221088 8.532599757638735e-16 3.1654574709905912e-15 -32.463069396680154 13.329187998253277 -171.65621101400177 -0.9173523629277828 -12.4842899738412 3.866104009632535 2.496599979676198 17.01301510610686 2.0021536611011235 -3.1805546814635168e-15 -3.1805546814635168e-15 -8.827812596100317e-32 -1.9534853428652608 -25.239707753196125 -12.087032740028043 -1.9543917394630286 14.497278916194075 5.26399197953898 -3.1805546814635168e-15 0.0 0.0
2.8734497351906945 37.654858577512094 -2.8985182007976737 71.46409100834819 -2.5732426701624673 99.37113683826728 -0.8506961651055095 -12.847986830462183 -4.567085943915007 12.625751524393191 1.3344527431322368e-14 4.923631715540334e-15 3.1805546814635168e-15 0.0 0.0 61.99077449097329 -8.984923376581033 -67.14928181624205 137.51922568623746 -2.304513290307213e-15 5.9289907085367735e-15 19.497489782875455 8.34809177860548 -2.9427653720480316 -17.31245236196251 -28.65517710153634 64.1475321303629 -122.61492780440561 6.060780364556984e-15 3.0861309973651674e-16 -28.370360273965833 10.712902732319598 -174.26756909979608 -0.8134599481387301 -12.303149677115655 3.8916482675195376 2.32431778409822 16.689100818087113 1.7887621145000134 0.0 0.0 0.0 -1.726364619445512 -24.834362564819088 -11.302142259156122 -1.897749114554289 14.69389461235216 4.448797408360073 -3.1805546814635164e-15 -3.1805546814635164e-15 -8.827812596100317e-32
2.927397696928423 37.65328292440637 -2.9472685087886608 71.4006657113462 -2.321264305656799 99.2168460410746 -0.8327482564752592 -12.94943291399835 -4.42733611402981 12.366280977868568 -6.3241048825270775e-15 6.851348494385292e-16 0.0 0.0 3.1805546814635164e-15 58.80074722806154 -11.817803991014458 -66.04874042257562 136.82494536807997 1.5404365607160515e-14 1.2936098465615898e-14 18.871439350843666 5.290684641884687 -1.8052937187335123 -18.52954453743726 -28.121615386516293 63.37558609401398 -122.74407955679655 2.2218005570478796e-15 2.410762508334748e-15 -25.866176432633477 8.825138718263476 -175.74591246381655 -0.7724612169619981 -12.040383654769597 4.022128915197053 2.2493569453641653 16.146665445260393 1.9590124715086783 -3.1805546814635164e-15 -8.827812596100317e-32 3.1805546814635164e-15 -1.648783843993998 -24.4757894691149 -10.77554171181976 -1.8170864679290812 14.888781423206039 3.771293996413554 0.0 0.0 0.0
2.9333274098751985 37.69852234227874 -2.93560329918564 71.27434579720145 -1.9859843320727864 99.40362085084537 -0.64369533895151 -13.055750008604992 -4.593347738640972 12.301646952108674 -6.815677034083518e-16 -6.324490318815315e-15 0.0 0.0 0.0 59.77941979716377 -11.990939605268641 -65.68962574082329 136.40449838376873 1.1221518486264066e-14 -2.3631732745542008e-15 19.012998210252096 6.1418741676373445 -2.1113684483535056 -20.277322194488594 -28.01717305143879 62.29943973293857 -121.8464651227263 -2.935542927480221e-15 -2.0068626816863246e-15 -27.22719358932472 7.082204340289592 -176.3701276234441 -0.6058639046004314 -12.312561512056938 3.7559634361960628 1.9538326882345816 16.43062634935371 2.1016335759070675 -3.1805546814635168e-15 0.0 0.0 -1.2711671484056084 -24.60371115450387 -10.459945427264726 -1.9640431774490121 14.764742960576394 2.9526838467668477 3.1805546814635168e-15 0.0 0.0
3.023405762915192 37.66614613420407 -2.9207585758447987 71.24012734984778 -1.172427750956012 99.36490393631789 -0.5725577481147132 -13.227534235071499 -4.294535029672198 11.56561439900018 3.2046555830297567e-16 3.164368800838653e-15 0.0 0.0 0.0 55.042668329585275 -14.910342542250056 -65.9524749636358 134.85256261875904 -8.81064275922849e-15 -3.662775846986824e-15 22.494709475694677 3.2154931424420776 -1.3306149063293977 -21.985340275448944 -26.857616149719576 60.860004553515274 -120.41390193674958 -9.176167165186155e-15 -4.824903317732554e-15 -28.00243732511752 3.3944847538571334 -178.19658676734406 -0.5210505163584539 -12.074175657190185 3.5620390160391726 1.8701388396100136 17.110110609109174 2.8217247503872964 0.0 0.0 0.0 -1.1128723315832816 -24.553376648061274 -10.090264768155388 -1.9169058574858524 14.416773272041478 2.3981536694515873 0.0 0.0 0.0
3.119629605048414 37.66200043314159 -2.8330327740812815 71.03989904533576 0.2619887406104865 99.5174320271713 -0.6483342461989434 -13.4286979528587 -3.8769291875201435 11.252449980167754 1.2660931101558009e-14 -1.2472661905434957e-15 -3.1805546814635168e-15 0.0 0.0 50.308647710272794 -17.483115085241195 -64.241156393632 134.0479398946667 -3.373437766635847e-15 -8.33950491869097e-15 20.650077521873648 2.0097388973480723 -0.757217168676178 -22.962971823153314 -26.17348801825673 60.893320588666626 -120.73470663424088 -6.100044108087654e-15 -7.507449409476257e-15 -27.84086931863424 6.606060393700507 -176.52299478195837 -0.5906209304004068 -12.271245204017806 2.9662262377106723 1.9422740562258394 18.623791919932145 3.8005588103308368 -3.1805546814635168e-15 -3.1805546814635168e-15 -8.827812596100317e-32 -1.2077999565835305 -23.978290259575328 -9.606005182212707 -1.5186651486877858 12.832682767609361 1.2566168859950166 -3.1805546814635168e-15 0.0 0.0
3.071849723699924 37.51972886159866 -2.6494547531917783 70.45802393003551 2.750867007743638 99.92305034436504 -0.6412906258623056 -14.091695742947682 -3.575170862867197 13.149990621126245 7.283700341388051e-16 6.319271272899004e-15 0.0 0.0 0.0 42.46582629762104 -20.47949151404889 -63.78509000671675 130.1349099187915 -1.1333957692583417e-14 1.7459862788299843e-15 19.77074030746641 5.743824042611467 -2.0602462730363555 -24.524572593665948 -25.470359187634212 62.17676184301308 -112.89499547749806 1.0480524638257495e-14 -2.1801607987223946e-15 -33.331392726692485 5.101441791363283 -176.65321919756093 -0.5704463630917449 -12.587534714237988 2.3379012000713164 1.7915576001946096 19.834288417731813 4.486206253776614 3.1805546814635168e-15 0.0 0.0 -1.2226227391664737 -25.57393406890555 -10.086472121054747 -1.7880586241660283 13.769746260255191 1.9905770502694473 -3.1805546814635168e-15 0.0 0.0
3.148410302111097 37.41735044137657 -2.5346034125441688 69.871757842894 6.2253511076918135 100.23023844777933 -0.4313126391073946 -14.396943475058206 -2.611216200713047 13.299282538182174 7.366022724452608e-16 6.318316976802164e-15 -3.1805546814635176e-15 6.361109362927035e-15 -3.1805546814635176e-15 36.43053691921886 -23.832210599299888 -62.352151553609 125.35454756474202 8.571195558601243e-15 -2.731671896559008e-15 24.308246158109245 23.909789378398155 -10.374215302907897 -34.919310083412306 -17.91502099648182 62.6009424138124 -117.74720495102274 3.5447056196742615e-15 -2.8279351490809456e-16 -32.48957035691357 -10.169147772282205 173.58502649437844 -0.3689616690067147 -12.385082397243533 2.3874024999467345 1.5556246722918516 20.70977667149054 4.203437114216919 -3.1805546814635168e-15 0.0 0.0 -0.8299552069504806 -26.286723974364786 -8.940415011352513 -1.6720866975316195 13.244868898981123 1.1752965139933798 -3.1805546814635168e-15 0.0 0.0
3.039678342867888 37.43254280591102 -2.4997168994598677 68.77245752090268 9.652591527747648 100.75032446711899 -0.036772189750206935 -14.353326926414281 -1.5979478960508164 14.239835085793764 -7.100495079490589e-15 -5.523621482357916e-15 3.1805546814635168e-15 0.0 0.0 32.2610954145895 -26.57098486930355 -60.89261960970921 124.2662472889224 5.300294939096003e-15 1.7193503778332592e-14 20.427079318884488 17.86583997990593 -6.518288950983323 -40.88080386704271 -17.35418134094591 62.66663236529811 -121.49216023453165 2.7749149307437147e-15 -1.5542764261594829e-15 -35.58952562306341 -4.580757047426107 176.7288166623255 -0.0332477743001942 -13.02689882392356 2.951031203209685 1.239882877369348 21.7880952500739 3.727170022993786 3.1805546814635168e-15 0.0 0.0 -0.076049170130597 -27.88808678574746 -7.07889432409093 -1.6420453355000562 13.291308536771163 -0.6840505380493135 -3.1805546814635168e-15 0.0 0.0
2.9554429170879257 37.39607217038222 -2.5146801993571546 68.11647480558301 11.53702417998266 101.50378131309726 0.1670542351390829 -14.306928446947396 -1.6409160034510222 17.9798482231744 5.785972524537199e-15 -4.135476073464587e-15 0.0 0.0 0.0 29.453187373646973 -32.495777728509566 -56.92771875076229 119.6445009051497 -5.947124000355466e-15 3.900173910647252e-15 20.84532317133366 15.794184452473507 -5.916947910475323 -35.199417950859115 -22.988185429693594 65.28242025255236 -115.6119694171651 6.6695323032512994e-15 1.4661212128183396e-16 -39.689388305783254 3.863745411360475 -176.79922893543306 0.15563115375173062 -13.36494324725658 2.59642855613388 0.810971671568845 22.85597447838158 3.8696645336516693 -6.361109362927033e-15 3.1805546814635168e-15 -6.361109362927033e-15 0.3653677143620727 -29.151408593805908 -6.790817340475754 -1.8381965938756368 13.621067402711919 -0.48328315312489395 -3.1805546814635168e-15 0.0 0.0
2.954908956002692 37.41157223328824 -2.522613996314813 67.96834269750438 14.566454270158264 102.42711599808933 0.2708009670652229 -14.531610701902919 -2.0037366241284484 21.75400905755041 5.646654148083592e-15 -4.3237642559265226e-15 0.0 0.0 0.0 24.250812253127467 -31.634589803986117 -55.35097179966184 115.1989892518493 -8.056248312035344e-15 -5.1127503235385074e-15 16.348449282553446 -2.525059808352977 0.7404165424611606 -38.49875325493535 -21.292656312740224 68.28389296867269 -119.15523191036944 7.0589705262604004e-15 1.6179232137422343e-15 -29.0920549625465 0.5522197763536789 -179.69274640720602 0.23024655556671006 -12.428647707330772 2.4656378573107145 0.5887028712630807 22.861731621342084 3.167694987906329 -3.1805546814635168e-15 -4.4139062980501586e-32 1.5902773407317584e-15 0.5865007042130584 -29.309035914217883 -6.328662728023782 -1.7626229947193077 13.104989750857989 -0.731422609052028 0.0 0.0 0.0
